<svg fill="none" height="105" viewBox="0 0 105 105" width="105" xmlns="http://www.w3.org/2000/svg" xmlns:xlink="http://www.w3.org/1999/xlink"><clipPath id="a"><path d="m0 0h105v105h-105z"/></clipPath><g clip-path="url(#a)"><ellipse cx="52.4997" cy="52.5" fill="#186c49" rx="52.4997" ry="52.5"/><path d="m74.3435 45.0247v32.0637c0 .7477-.6061 1.3539-1.3538 1.3539h-42.3334c-.7477 0-1.3538-.6062-1.3538-1.3539v-31.4561m22.564 1.5718v20.4292m10.2149-10.2146h-20.4292m35.8667-10.8634-25.5189-14.7334-25.5189 14.7334c-.6476.3738-1.4756.152-1.8494-.4956l-3.0751-5.3261c-.3739-.6476-.152-1.4756.4956-1.8494l28.9296-16.7026c.3208-.1852.686-.2242 1.0182-.1377.3322-.0865.6974-.0475 1.0182.1377l28.9296 16.7026c.6476.3738.8695 1.2018.4956 1.8494l-3.0751 5.3261c-.3738.6476-1.2018.8694-1.8494.4956z" stroke="#00e2ad" stroke-linecap="round" stroke-linejoin="round" stroke-width="3"/></g></svg>